<svg width="24" height="25" viewBox="0 0 24 25" fill="none" xmlns="http://www.w3.org/2000/svg">
<path d="M6.72209 4.60104C8.28435 3.55717 10.1211 3 12 3C13.2476 3 14.4829 3.24572 15.6355 3.72314C16.7881 4.20056 17.8354 4.90033 18.7175 5.78249C19.5997 6.66464 20.2994 7.71191 20.7769 8.86451C21.2543 10.0171 21.5 11.2524 21.5 12.5C21.5 14.3789 20.9428 16.2157 19.899 17.7779C18.8551 19.3402 17.3714 20.5578 15.6355 21.2769C13.8996 21.9959 11.9895 22.184 10.1466 21.8175C8.30383 21.4509 6.61109 20.5461 5.28249 19.2175C3.95389 17.8889 3.0491 16.1962 2.68254 14.3534C2.31598 12.5105 2.50412 10.6004 3.22315 8.86451C3.94218 7.12861 5.15982 5.64491 6.72209 4.60104ZM7.27766 19.5675C8.67548 20.5015 10.3189 21 12 21C14.2543 21 16.4164 20.1045 18.0104 18.5104C19.6045 16.9163 20.5 14.7543 20.5 12.5C20.5 10.8189 20.0015 9.17547 19.0675 7.77765C18.1335 6.37984 16.806 5.29037 15.2528 4.64702C13.6996 4.00368 11.9906 3.83535 10.3417 4.16333C8.6929 4.4913 7.17834 5.30085 5.9896 6.48959C4.80085 7.67834 3.9913 9.19289 3.66333 10.8417C3.33536 12.4906 3.50368 14.1996 4.14703 15.7528C4.79037 17.306 5.87984 18.6335 7.27766 19.5675Z" stroke="#BABDC2"/>
</svg>
